<svg xmlns="http://www.w3.org/2000/svg" xmlns:xlink="http://www.w3.org/1999/xlink" width="258" zoomAndPan="magnify" viewBox="0 0 193.5 169.5" height="226" preserveAspectRatio="xMidYMid meet" version="1.2"><defs><clipPath id="4ccf20d981"><path d="M 0.0351562 10 L 172 10 L 172 157 L 0.0351562 157 Z M 0.0351562 10 "/></clipPath><clipPath id="463bce8a4c"><path d="M 0.0351562 10 L 172 10 L 172 43 L 0.0351562 43 Z M 0.0351562 10 "/></clipPath><clipPath id="cd609ce0e0"><path d="M 144 147 L 167 147 L 167 169 L 144 169 Z M 144 147 "/></clipPath><clipPath id="8f8794fae5"><path d="M 117 80 L 192.964844 80 L 192.964844 159 L 117 159 Z M 117 80 "/></clipPath></defs><g id="1ab7211cd1"><path style=" stroke:none;fill-rule:nonzero;fill:#ffffff;fill-opacity:1;" d="M 170.535156 141.261719 C 170.535156 149.152344 163.832031 155.550781 155.5625 155.550781 L 16.242188 155.550781 C 7.972656 155.550781 1.269531 149.152344 1.269531 141.261719 L 1.269531 25.695312 C 1.269531 17.804688 7.972656 11.410156 16.242188 11.410156 L 155.5625 11.410156 C 163.832031 11.410156 170.535156 17.808594 170.535156 25.695312 Z M 170.535156 141.261719 "/><g clip-rule="nonzero" clip-path="url(#4ccf20d981)"><path style="fill:none;stroke-width:3;stroke-linecap:round;stroke-linejoin:round;stroke:#17142b;stroke-opacity:1;stroke-miterlimit:10;" d="M 300.883006 279.633654 C 300.883006 289.014125 292.898861 296.620666 283.048956 296.620666 L 117.103421 296.620666 C 107.253516 296.620666 99.269371 289.014125 99.269371 279.633654 L 99.269371 142.246897 C 99.269371 132.866426 107.253516 125.264529 117.103421 125.264529 L 283.048956 125.264529 C 292.898861 125.264529 300.883006 132.87107 300.883006 142.246897 Z M 300.883006 279.633654 " transform="matrix(0.839554,0,0,0.841176,-82.072511,-93.959326)"/></g><path style=" stroke:none;fill-rule:nonzero;fill:#e83f3f;fill-opacity:1;" d="M 170.535156 41.648438 L 170.535156 25.695312 C 170.535156 17.804688 163.832031 11.410156 155.5625 11.410156 L 16.242188 11.410156 C 7.972656 11.410156 1.269531 17.808594 1.269531 25.695312 L 1.269531 41.648438 Z M 170.535156 41.648438 "/><g clip-rule="nonzero" clip-path="url(#463bce8a4c)"><path style="fill:none;stroke-width:3;stroke-linecap:round;stroke-linejoin:round;stroke:#17142b;stroke-opacity:1;stroke-miterlimit:10;" d="M 300.883006 161.212167 L 300.883006 142.246897 C 300.883006 132.866426 292.898861 125.264529 283.048956 125.264529 L 117.103421 125.264529 C 107.253516 125.264529 99.269371 132.87107 99.269371 142.246897 L 99.269371 161.212167 Z M 300.883006 161.212167 " transform="matrix(0.839554,0,0,0.841176,-82.072511,-93.959326)"/></g><path style=" stroke:none;fill-rule:nonzero;fill:#17142b;fill-opacity:1;" d="M 38.992188 27.390625 C 38.992188 29.699219 37.125 31.570312 34.820312 31.570312 C 32.519531 31.570312 30.652344 29.699219 30.652344 27.390625 L 30.652344 4.164062 C 30.652344 1.855469 32.519531 -0.015625 34.820312 -0.015625 C 37.125 -0.015625 38.992188 1.855469 38.992188 4.164062 Z M 38.992188 27.390625 "/><path style=" stroke:none;fill-rule:nonzero;fill:#17142b;fill-opacity:1;" d="M 141.152344 27.390625 C 141.152344 29.699219 139.285156 31.570312 136.980469 31.570312 C 134.679688 31.570312 132.8125 29.699219 132.8125 27.390625 L 132.8125 4.164062 C 132.8125 1.855469 134.679688 -0.015625 136.980469 -0.015625 C 139.285156 -0.015625 141.152344 1.855469 141.152344 4.164062 Z M 141.152344 27.390625 "/><path style="fill:none;stroke-width:3;stroke-linecap:round;stroke-linejoin:round;stroke:#17142b;stroke-opacity:1;stroke-miterlimit:10;" d="M 125.208538 189.16783 L 160.355529 189.16783 " transform="matrix(0.839554,0,0,0.841176,-82.072511,-93.959326)"/><path style="fill:none;stroke-width:3;stroke-linecap:round;stroke-linejoin:round;stroke:#17142b;stroke-opacity:1;stroke-miterlimit:10;" d="M 125.208538 228.315045 L 160.355529 228.315045 " transform="matrix(0.839554,0,0,0.841176,-82.072511,-93.959326)"/><path style="fill:none;stroke-width:3;stroke-linecap:round;stroke-linejoin:round;stroke:#17142b;stroke-opacity:1;stroke-miterlimit:10;" d="M 125.208538 267.457616 L 160.355529 267.457616 " transform="matrix(0.839554,0,0,0.841176,-82.072511,-93.959326)"/><path style="fill:none;stroke-width:3;stroke-linecap:round;stroke-linejoin:round;stroke:#17142b;stroke-opacity:1;stroke-miterlimit:10;" d="M 182.502693 189.16783 L 217.649684 189.16783 " transform="matrix(0.839554,0,0,0.841176,-82.072511,-93.959326)"/><path style="fill:none;stroke-width:3;stroke-linecap:round;stroke-linejoin:round;stroke:#17142b;stroke-opacity:1;stroke-miterlimit:10;" d="M 182.502693 228.315045 L 217.649684 228.315045 " transform="matrix(0.839554,0,0,0.841176,-82.072511,-93.959326)"/><path style="fill:none;stroke-width:3;stroke-linecap:round;stroke-linejoin:round;stroke:#17142b;stroke-opacity:1;stroke-miterlimit:10;" d="M 182.502693 267.457616 L 217.649684 267.457616 " transform="matrix(0.839554,0,0,0.841176,-82.072511,-93.959326)"/><path style="fill:none;stroke-width:3;stroke-linecap:round;stroke-linejoin:round;stroke:#17142b;stroke-opacity:1;stroke-miterlimit:10;" d="M 239.796848 189.16783 L 274.943839 189.16783 " transform="matrix(0.839554,0,0,0.841176,-82.072511,-93.959326)"/><path style="fill:none;stroke-width:3;stroke-linecap:round;stroke-linejoin:round;stroke:#17142b;stroke-opacity:1;stroke-miterlimit:10;" d="M 239.796848 228.315045 L 274.943839 228.315045 " transform="matrix(0.839554,0,0,0.841176,-82.072511,-93.959326)"/><path style="fill:none;stroke-width:3;stroke-linecap:round;stroke-linejoin:round;stroke:#17142b;stroke-opacity:1;stroke-miterlimit:10;" d="M 239.796848 267.457616 L 274.943839 267.457616 " transform="matrix(0.839554,0,0,0.841176,-82.072511,-93.959326)"/><path style="fill:none;stroke-width:3;stroke-linecap:round;stroke-linejoin:round;stroke:#ffffff;stroke-opacity:1;stroke-miterlimit:10;" d="M 270.923849 130.456295 L 285.12409 130.456295 C 285.12409 130.456295 294.290038 133.052178 294.290038 140.240777 C 294.290038 147.429376 294.290038 155.820718 294.290038 155.820718 " transform="matrix(0.839554,0,0,0.841176,-82.072511,-93.959326)"/><path style="fill:none;stroke-width:3;stroke-linecap:round;stroke-linejoin:round;stroke:#ffffff;stroke-opacity:1;stroke-miterlimit:10;" d="M 151.096526 130.456295 L 248.492867 130.456295 " transform="matrix(0.839554,0,0,0.841176,-82.072511,-93.959326)"/><path style="fill:none;stroke-width:3;stroke-linecap:round;stroke-linejoin:round;stroke:#ffffff;stroke-opacity:1;stroke-miterlimit:10;" d="M 260.915751 116.87783 L 260.915751 143.138507 " transform="matrix(0.839554,0,0,0.841176,-82.072511,-93.959326)"/><path style="fill:none;stroke-width:3;stroke-linecap:round;stroke-linejoin:round;stroke:#ffffff;stroke-opacity:1;stroke-miterlimit:10;" d="M 139.231974 116.87783 L 139.231974 143.236026 " transform="matrix(0.839554,0,0,0.841176,-82.072511,-93.959326)"/><path style="fill:none;stroke-width:3;stroke-linecap:round;stroke-linejoin:round;stroke:#ffffff;stroke-opacity:1;stroke-miterlimit:10;" d="M 113.948846 130.456295 L 129.526305 130.456295 " transform="matrix(0.839554,0,0,0.841176,-82.072511,-93.959326)"/><path style=" stroke:none;fill-rule:nonzero;fill:#e83f3f;fill-opacity:1;" d="M 164.957031 158.71875 C 164.957031 159.359375 164.894531 159.996094 164.769531 160.628906 C 164.644531 161.257812 164.457031 161.871094 164.214844 162.460938 C 163.96875 163.054688 163.667969 163.621094 163.3125 164.152344 C 162.953125 164.6875 162.550781 165.183594 162.097656 165.636719 C 161.644531 166.089844 161.148438 166.496094 160.617188 166.851562 C 160.082031 167.210938 159.519531 167.511719 158.929688 167.757812 C 158.335938 168.003906 157.726562 168.1875 157.097656 168.3125 C 156.46875 168.4375 155.832031 168.5 155.191406 168.5 C 154.550781 168.5 153.917969 168.4375 153.289062 168.3125 C 152.660156 168.1875 152.046875 168.003906 151.457031 167.757812 C 150.863281 167.511719 150.300781 167.210938 149.769531 166.851562 C 149.234375 166.496094 148.742188 166.089844 148.289062 165.636719 C 147.835938 165.183594 147.429688 164.6875 147.074219 164.152344 C 146.71875 163.621094 146.417969 163.054688 146.171875 162.460938 C 145.925781 161.871094 145.742188 161.257812 145.617188 160.628906 C 145.492188 159.996094 145.429688 159.359375 145.429688 158.71875 C 145.429688 158.078125 145.492188 157.441406 145.617188 156.808594 C 145.742188 156.179688 145.925781 155.570312 146.171875 154.976562 C 146.417969 154.382812 146.71875 153.816406 147.074219 153.285156 C 147.429688 152.75 147.835938 152.253906 148.289062 151.800781 C 148.742188 151.347656 149.234375 150.941406 149.769531 150.585938 C 150.300781 150.226562 150.863281 149.925781 151.457031 149.679688 C 152.046875 149.433594 152.660156 149.25 153.289062 149.125 C 153.917969 149 154.550781 148.9375 155.191406 148.9375 C 155.832031 148.9375 156.46875 149 157.097656 149.125 C 157.726562 149.25 158.335938 149.433594 158.929688 149.679688 C 159.519531 149.925781 160.082031 150.226562 160.617188 150.585938 C 161.148438 150.941406 161.644531 151.347656 162.097656 151.800781 C 162.550781 152.253906 162.953125 152.75 163.3125 153.285156 C 163.667969 153.816406 163.96875 154.382812 164.214844 154.976562 C 164.457031 155.570312 164.644531 156.179688 164.769531 156.808594 C 164.894531 157.441406 164.957031 158.078125 164.957031 158.71875 Z M 164.957031 158.71875 "/><g clip-rule="nonzero" clip-path="url(#cd609ce0e0)"><path style="fill:none;stroke-width:3;stroke-linecap:round;stroke-linejoin:round;stroke:#17142b;stroke-opacity:1;stroke-miterlimit:10;" d="M 294.238857 300.386786 C 294.238857 301.148369 294.164413 301.905308 294.015525 302.657603 C 293.866636 303.405254 293.643303 304.134331 293.354832 304.835544 C 293.061708 305.541401 292.703445 306.214752 292.280043 306.846309 C 291.851989 307.482509 291.372754 308.072271 290.833033 308.610952 C 290.293312 309.149632 289.702411 309.632587 289.069635 310.055173 C 288.432206 310.482402 287.762208 310.839975 287.05964 311.132534 C 286.35242 311.425093 285.626588 311.643352 284.877493 311.791953 C 284.128398 311.940555 283.369997 312.014855 282.606943 312.014855 C 281.84389 312.014855 281.090142 311.940555 280.341047 311.791953 C 279.591951 311.643352 278.861467 311.425093 278.1589 311.132534 C 277.451679 310.839975 276.781681 310.482402 276.148905 310.055173 C 275.511476 309.632587 274.925228 309.149632 274.385507 308.610952 C 273.845786 308.072271 273.361898 307.482509 272.938497 306.846309 C 272.515095 306.214752 272.156832 305.541401 271.863708 304.835544 C 271.570584 304.134331 271.351904 303.405254 271.203015 302.657603 C 271.054127 301.905308 270.979682 301.148369 270.979682 300.386786 C 270.979682 299.625203 271.054127 298.868264 271.203015 298.115969 C 271.351904 297.368317 271.570584 296.643885 271.863708 295.938028 C 272.156832 295.23217 272.515095 294.55882 272.938497 293.927263 C 273.361898 293.291063 273.845786 292.701301 274.385507 292.16262 C 274.925228 291.62394 275.511476 291.140985 276.148905 290.718399 C 276.781681 290.29117 277.451679 289.933597 278.1589 289.641038 C 278.861467 289.348479 279.591951 289.13022 280.341047 288.981619 C 281.090142 288.833017 281.84389 288.758716 282.606943 288.758716 C 283.369997 288.758716 284.128398 288.833017 284.877493 288.981619 C 285.626588 289.13022 286.35242 289.348479 287.05964 289.641038 C 287.762208 289.933597 288.432206 290.29117 289.069635 290.718399 C 289.702411 291.140985 290.293312 291.62394 290.833033 292.16262 C 291.372754 292.701301 291.851989 293.291063 292.280043 293.927263 C 292.703445 294.55882 293.061708 295.23217 293.354832 295.938028 C 293.643303 296.643885 293.866636 297.368317 294.015525 298.115969 C 294.164413 298.868264 294.238857 299.625203 294.238857 300.386786 Z M 294.238857 300.386786 " transform="matrix(0.839554,0,0,0.841176,-82.072511,-93.959326)"/></g><path style=" stroke:none;fill-rule:nonzero;fill:#e83f3f;fill-opacity:1;" d="M 181.851562 144.328125 C 181.851562 144.328125 186.808594 116.984375 186.808594 113.894531 C 186.808594 96.398438 172.65625 82.214844 155.191406 82.214844 C 137.730469 82.214844 123.574219 96.398438 123.574219 113.894531 C 123.574219 116.984375 127.914062 144.328125 127.914062 144.328125 L 118.820312 157.167969 L 191.5625 157.167969 Z M 181.851562 144.328125 "/><g clip-rule="nonzero" clip-path="url(#8f8794fae5)"><path style="fill:none;stroke-width:3;stroke-linecap:round;stroke-linejoin:round;stroke:#17142b;stroke-opacity:1;stroke-miterlimit:10;" d="M 314.362068 283.279035 C 314.362068 283.279035 320.266428 250.772451 320.266428 247.099207 C 320.266428 226.299637 303.409458 209.438007 282.606943 209.438007 C 261.809082 209.438007 244.947459 226.299637 244.947459 247.099207 C 244.947459 250.772451 250.116682 283.279035 250.116682 283.279035 L 239.285044 298.543198 L 325.928843 298.543198 Z M 314.362068 283.279035 " transform="matrix(0.839554,0,0,0.841176,-82.072511,-93.959326)"/></g><path style="fill:none;stroke-width:3;stroke-linecap:round;stroke-linejoin:round;stroke:#ffffff;stroke-opacity:1;stroke-miterlimit:10;" d="M 282.606943 215.83716 C 282.606943 215.83716 315.739287 223.592303 312.170616 247.099207 C 308.215765 273.150912 306.605908 279.95872 306.605908 279.95872 " transform="matrix(0.839554,0,0,0.841176,-82.072511,-93.959326)"/><path style="fill:none;stroke-width:3;stroke-linecap:round;stroke-linejoin:round;stroke:#17142b;stroke-opacity:1;stroke-miterlimit:10;" d="M 250.116682 283.279035 L 291.470462 283.279035 " transform="matrix(0.839554,0,0,0.841176,-82.072511,-93.959326)"/><path style="fill-rule:nonzero;fill:#e83f3f;fill-opacity:1;stroke-width:3;stroke-linecap:round;stroke-linejoin:round;stroke:#17142b;stroke-opacity:1;stroke-miterlimit:10;" d="M 288.515956 204.264816 C 288.515956 204.654895 288.478734 205.035687 288.399637 205.416478 C 288.325192 205.79727 288.213526 206.168773 288.064637 206.526346 C 287.915749 206.883918 287.734291 207.222916 287.520264 207.547981 C 287.306237 207.868403 287.05964 208.165606 286.785127 208.439591 C 286.510614 208.718218 286.212837 208.959696 285.891796 209.177954 C 285.566102 209.391569 285.22645 209.572677 284.868188 209.721279 C 284.509925 209.86988 284.142356 209.981331 283.760829 210.060276 C 283.379303 210.134577 282.997776 210.171727 282.606943 210.171727 C 282.220764 210.171727 281.834584 210.134577 281.45771 210.060276 C 281.076184 209.981331 280.703962 209.86988 280.345699 209.721279 C 279.987437 209.572677 279.647785 209.391569 279.326744 209.177954 C 279.005703 208.959696 278.703273 208.718218 278.433413 208.439591 C 278.1589 208.165606 277.912303 207.868403 277.698276 207.547981 C 277.479596 207.222916 277.298138 206.883918 277.14925 206.526346 C 277.000361 206.168773 276.888695 205.79727 276.81425 205.416478 C 276.739806 205.035687 276.702584 204.654895 276.702584 204.264816 C 276.702584 203.879381 276.739806 203.493946 276.81425 203.113155 C 276.888695 202.732363 277.000361 202.360859 277.14925 202.003287 C 277.298138 201.645714 277.479596 201.306717 277.698276 200.981651 C 277.912303 200.661229 278.1589 200.364026 278.433413 200.090042 C 278.703273 199.816058 279.005703 199.569937 279.326744 199.351678 C 279.647785 199.138064 279.987437 198.956956 280.345699 198.808354 C 280.703962 198.659752 281.076184 198.548301 281.45771 198.469357 C 281.834584 198.395056 282.220764 198.357906 282.606943 198.357906 C 282.997776 198.357906 283.379303 198.395056 283.760829 198.469357 C 284.142356 198.548301 284.509925 198.659752 284.868188 198.808354 C 285.22645 198.956956 285.566102 199.138064 285.891796 199.351678 C 286.212837 199.569937 286.510614 199.816058 286.785127 200.090042 C 287.05964 200.364026 287.306237 200.661229 287.520264 200.981651 C 287.734291 201.306717 287.915749 201.645714 288.064637 202.003287 C 288.213526 202.360859 288.325192 202.732363 288.399637 203.113155 C 288.478734 203.493946 288.515956 203.879381 288.515956 204.264816 Z M 288.515956 204.264816 " transform="matrix(0.839554,0,0,0.841176,-82.072511,-93.959326)"/></g></svg>